<svg id="visual" viewBox="0 0 900 600" width="900" height="600" xmlns="http://www.w3.org/2000/svg" xmlns:xlink="http://www.w3.org/1999/xlink" version="1.1"><path d="M0 573L30 573.7C60 574.3 120 575.7 180 575.3C240 575 300 573 360 571C420 569 480 567 540 565.5C600 564 660 563 720 563.5C780 564 840 566 870 567L900 568L900 601L870 601C840 601 780 601 720 601C660 601 600 601 540 601C480 601 420 601 360 601C300 601 240 601 180 601C120 601 60 601 30 601L0 601Z" fill="#00aeff" stroke-linecap="round" stroke-linejoin="miter"></path></svg>